<mxfile host="app.diagrams.net" modified="2023-09-15T06:34:24.910Z" agent="Mozilla/5.0 (Windows NT 10.0; Win64; x64) AppleWebKit/537.36 (KHTML, like Gecko) Chrome/116.0.0.0 Safari/537.36" version="21.2.3" etag="fPCFNGiNsuGYf6O_iQTi" type="github">
  <diagram name="Page-1" id="Ezog3iLmy9DS97tM7INg">
    <mxGraphModel>
      <root>
        <mxCell id="0" />
        <mxCell id="1" parent="0" />
      </root>
    </mxGraphModel>
  </diagram>
</mxfile>
